<svg width="163" height="71" viewBox="0 0 163 71" fill="none" xmlns="http://www.w3.org/2000/svg">
<path d="M48.75 17.5H37.3864C37.2348 16.3333 36.9242 15.2803 36.4545 14.3409C35.9848 13.4015 35.3636 12.5985 34.5909 11.9318C33.8182 11.2652 32.9015 10.7576 31.8409 10.4091C30.7955 10.0455 29.6364 9.86364 28.3636 9.86364C26.1061 9.86364 24.1591 10.4167 22.5227 11.5227C20.9015 12.6288 19.6515 14.2273 18.7727 16.3182C17.9091 18.4091 17.4773 20.9394 17.4773 23.9091C17.4773 27 17.9167 29.5909 18.7955 31.6818C19.6894 33.7576 20.9394 35.3258 22.5455 36.3864C24.1667 37.4318 26.0833 37.9545 28.2955 37.9545C29.5379 37.9545 30.6667 37.7955 31.6818 37.4773C32.7121 37.1591 33.6136 36.697 34.3864 36.0909C35.1742 35.4697 35.8182 34.7197 36.3182 33.8409C36.8333 32.947 37.1894 31.9394 37.3864 30.8182L48.75 30.8864C48.553 32.947 47.9545 34.9773 46.9545 36.9773C45.9697 38.9773 44.6136 40.803 42.8864 42.4545C41.1591 44.0909 39.053 45.3939 36.5682 46.3636C34.0985 47.3333 31.2652 47.8182 28.0682 47.8182C23.8561 47.8182 20.0833 46.8939 16.75 45.0455C13.4318 43.1818 10.8106 40.4697 8.88636 36.9091C6.96212 33.3485 6 29.0152 6 23.9091C6 18.7879 6.97727 14.447 8.93182 10.8864C10.8864 7.32576 13.5303 4.62121 16.8636 2.77273C20.197 0.924243 23.9318 0 28.0682 0C30.8864 0 33.4924 0.39394 35.8864 1.18182C38.2803 1.95455 40.3864 3.09091 42.2045 4.59091C44.0227 6.07576 45.5 7.90152 46.6364 10.0682C47.7727 12.2349 48.4773 14.7121 48.75 17.5Z" fill="white"/>
<path d="M55.1875 0.636364H69.1193L80.9375 29.4545H81.483L93.3011 0.636364H107.233V47.1818H96.2784V18.5909H95.8921L84.7102 46.8864H77.7102L66.5284 18.4318H66.142V47.1818H55.1875V0.636364Z" fill="white"/>
<path d="M114.25 47.1818V0.636364H125.5V20.3182H126.114L141.5 0.636364H154.75L138.25 21.4091L155.045 47.1818H141.591L130 28.8864L125.5 34.5682V47.1818H114.25Z" fill="white"/>
<path fill-rule="evenodd" clip-rule="evenodd" d="M163 56H0V55H163V56Z" fill="white"/>
<path d="M39.7706 70V59.8182H43.9766C44.7389 59.8182 45.3968 59.9673 45.9503 60.2656C46.5071 60.5606 46.9363 60.9732 47.2379 61.5035C47.5395 62.0305 47.6903 62.6437 47.6903 63.343C47.6903 64.0457 47.5362 64.6605 47.228 65.1875C46.9231 65.7112 46.4872 66.1172 45.9205 66.4055C45.3537 66.6939 44.6809 66.8381 43.902 66.8381H41.3068V64.8991H43.4446C43.8158 64.8991 44.1257 64.8345 44.3743 64.7052C44.6262 64.576 44.8168 64.3953 44.946 64.1633C45.0753 63.928 45.1399 63.6546 45.1399 63.343C45.1399 63.0282 45.0753 62.7564 44.946 62.5277C44.8168 62.2957 44.6262 62.1167 44.3743 61.9908C44.1224 61.8648 43.8125 61.8018 43.4446 61.8018H42.2315V70H39.7706Z" fill="white"/>
<path d="M55.3977 70.1442C54.5956 70.1442 53.9062 69.9801 53.3295 69.652C52.7561 69.3205 52.3136 68.8598 52.0021 68.2699C51.6938 67.6766 51.5397 66.9889 51.5397 66.2067C51.5397 65.4212 51.6938 64.7334 52.0021 64.1435C52.3136 63.5502 52.7561 63.0895 53.3295 62.7614C53.9062 62.4299 54.5956 62.2642 55.3977 62.2642C56.1997 62.2642 56.8875 62.4299 57.4609 62.7614C58.0376 63.0895 58.48 63.5502 58.7883 64.1435C59.0998 64.7334 59.2556 65.4212 59.2556 66.2067C59.2556 66.9889 59.0998 67.6766 58.7883 68.2699C58.48 68.8598 58.0376 69.3205 57.4609 69.652C56.8875 69.9801 56.1997 70.1442 55.3977 70.1442ZM55.4126 68.3096C55.7042 68.3096 55.9512 68.2202 56.1533 68.0412C56.3555 67.8622 56.5096 67.6136 56.6157 67.2954C56.7251 66.9773 56.7798 66.6094 56.7798 66.1918C56.7798 65.7675 56.7251 65.3963 56.6157 65.0781C56.5096 64.7599 56.3555 64.5114 56.1533 64.3324C55.9512 64.1534 55.7042 64.0639 55.4126 64.0639C55.111 64.0639 54.8557 64.1534 54.6469 64.3324C54.4414 64.5114 54.284 64.7599 54.1746 65.0781C54.0686 65.3963 54.0155 65.7675 54.0155 66.1918C54.0155 66.6094 54.0686 66.9773 54.1746 67.2954C54.284 67.6136 54.4414 67.8622 54.6469 68.0412C54.8557 68.2202 55.111 68.3096 55.4126 68.3096Z" fill="white"/>
<path d="M63.581 70V62.3636H65.9425V63.7557H66.022C66.1612 63.2519 66.3883 62.8774 66.7031 62.6321C67.018 62.3835 67.3843 62.2592 67.8019 62.2592C67.9146 62.2592 68.0306 62.2675 68.1499 62.2841C68.2692 62.2973 68.3802 62.3189 68.483 62.3487V64.4616C68.367 64.4219 68.2145 64.3904 68.0256 64.3672C67.84 64.344 67.6743 64.3324 67.5284 64.3324C67.2401 64.3324 66.9799 64.397 66.7479 64.5263C66.5192 64.6522 66.3386 64.8295 66.206 65.0582C66.0767 65.2836 66.0121 65.5488 66.0121 65.8537V70H63.581Z" fill="white"/>
<path d="M77.2194 62.3636V64.1534H72.4019V62.3636H77.2194ZM73.4112 60.5341H75.8423V67.5987C75.8423 67.7479 75.8655 67.8688 75.9119 67.9616C75.9616 68.0511 76.0329 68.1158 76.1257 68.1555C76.2185 68.192 76.3295 68.2102 76.4588 68.2102C76.5516 68.2102 76.6493 68.2019 76.7521 68.1854C76.8581 68.1655 76.9377 68.1489 76.9907 68.1356L77.3586 69.8906C77.2426 69.9238 77.0785 69.9652 76.8664 70.0149C76.6576 70.0646 76.4074 70.0961 76.1157 70.1094C75.5456 70.1359 75.0568 70.0696 74.6491 69.9105C74.2447 69.7481 73.9348 69.4962 73.7194 69.1548C73.5073 68.8134 73.4045 68.3842 73.4112 67.8672V60.5341Z" fill="white"/>
<path d="M85.88 62.3636V64.1534H80.9681V62.3636H85.88ZM81.9922 70V61.9758C81.9922 61.3859 82.1033 60.897 82.3253 60.5092C82.5474 60.1181 82.8556 59.8265 83.25 59.6342C83.6445 59.4387 84.1002 59.3409 84.6172 59.3409C84.9553 59.3409 85.2735 59.3674 85.5718 59.4204C85.8734 59.4702 86.0971 59.5149 86.2429 59.5547L85.8552 61.3345C85.7657 61.3047 85.6563 61.2798 85.527 61.2599C85.4011 61.24 85.2818 61.2301 85.1691 61.2301C84.884 61.2301 84.6885 61.2931 84.5824 61.419C84.4764 61.545 84.4233 61.7173 84.4233 61.9361V70H81.9922Z" fill="white"/>
<path d="M93.4481 70.1442C92.646 70.1442 91.9566 69.9801 91.3799 69.652C90.8065 69.3205 90.3641 68.8598 90.0525 68.2699C89.7443 67.6766 89.5902 66.9889 89.5902 66.2067C89.5902 65.4212 89.7443 64.7334 90.0525 64.1435C90.3641 63.5502 90.8065 63.0895 91.3799 62.7614C91.9566 62.4299 92.646 62.2642 93.4481 62.2642C94.2502 62.2642 94.9379 62.4299 95.5113 62.7614C96.088 63.0895 96.5305 63.5502 96.8387 64.1435C97.1503 64.7334 97.3061 65.4212 97.3061 66.2067C97.3061 66.9889 97.1503 67.6766 96.8387 68.2699C96.5305 68.8598 96.088 69.3205 95.5113 69.652C94.9379 69.9801 94.2502 70.1442 93.4481 70.1442ZM93.463 68.3096C93.7547 68.3096 94.0016 68.2202 94.2038 68.0412C94.406 67.8622 94.5601 67.6136 94.6662 67.2954C94.7755 66.9773 94.8302 66.6094 94.8302 66.1918C94.8302 65.7675 94.7755 65.3963 94.6662 65.0781C94.5601 64.7599 94.406 64.5114 94.2038 64.3324C94.0016 64.1534 93.7547 64.0639 93.463 64.0639C93.1614 64.0639 92.9062 64.1534 92.6974 64.3324C92.4919 64.5114 92.3345 64.7599 92.2251 65.0781C92.1191 65.3963 92.066 65.7675 92.066 66.1918C92.066 66.6094 92.1191 66.9773 92.2251 67.2954C92.3345 67.6136 92.4919 67.8622 92.6974 68.0412C92.9062 68.2202 93.1614 68.3096 93.463 68.3096Z" fill="white"/>
<path d="M104.063 59.8182V70H101.631V59.8182H104.063Z" fill="white"/>
<path d="M108.69 70V62.3636H111.121V70H108.69ZM109.908 61.4737C109.567 61.4737 109.273 61.361 109.028 61.1356C108.783 60.9069 108.66 60.6319 108.66 60.3104C108.66 59.9922 108.783 59.7204 109.028 59.495C109.273 59.2663 109.567 59.152 109.908 59.152C110.253 59.152 110.546 59.2663 110.788 59.495C111.033 59.7204 111.156 59.9922 111.156 60.3104C111.156 60.6319 111.033 60.9069 110.788 61.1356C110.546 61.361 110.253 61.4737 109.908 61.4737Z" fill="white"/>
<path d="M119.313 70.1442C118.511 70.1442 117.822 69.9801 117.245 69.652C116.672 69.3205 116.229 68.8598 115.918 68.2699C115.609 67.6766 115.455 66.9889 115.455 66.2067C115.455 65.4212 115.609 64.7334 115.918 64.1435C116.229 63.5502 116.672 63.0895 117.245 62.7614C117.822 62.4299 118.511 62.2642 119.313 62.2642C120.115 62.2642 120.803 62.4299 121.376 62.7614C121.953 63.0895 122.396 63.5502 122.704 64.1435C123.015 64.7334 123.171 65.4212 123.171 66.2067C123.171 66.9889 123.015 67.6766 122.704 68.2699C122.396 68.8598 121.953 69.3205 121.376 69.652C120.803 69.9801 120.115 70.1442 119.313 70.1442ZM119.328 68.3096C119.62 68.3096 119.867 68.2202 120.069 68.0412C120.271 67.8622 120.425 67.6136 120.531 67.2954C120.641 66.9773 120.695 66.6094 120.695 66.1918C120.695 65.7675 120.641 65.3963 120.531 65.0781C120.425 64.7599 120.271 64.5114 120.069 64.3324C119.867 64.1534 119.62 64.0639 119.328 64.0639C119.026 64.0639 118.771 64.1534 118.562 64.3324C118.357 64.5114 118.199 64.7599 118.09 65.0781C117.984 65.3963 117.931 65.7675 117.931 66.1918C117.931 66.6094 117.984 66.9773 118.09 67.2954C118.199 67.6136 118.357 67.8622 118.562 68.0412C118.771 68.2202 119.026 68.3096 119.328 68.3096Z" fill="white"/>
</svg>
